<svg width="30" height="28" viewBox="0 0 30 28" fill="none" xmlns="http://www.w3.org/2000/svg">
<path d="M16.474 1.07502L28.257 7.87902C28.7047 8.13775 29.0766 8.50961 29.3353 8.95734C29.594 9.40506 29.7304 9.91293 29.731 10.43V17.57C29.7304 18.0871 29.594 18.595 29.3353 19.0427C29.0766 19.4904 28.7047 19.8623 28.257 20.121L16.474 26.924C16.0259 27.1824 15.5177 27.3184 15.0005 27.3184C14.4833 27.3184 13.9751 27.1824 13.527 26.924L1.743 20.121C1.29532 19.8621 0.923583 19.49 0.665052 19.0421C0.406521 18.5942 0.270284 18.0862 0.27 17.569V10.43C0.27 9.37802 0.831 8.40502 1.743 7.87902L13.527 1.07502C13.9751 0.816664 14.4833 0.680664 15.0005 0.680664C15.5177 0.680664 16.0259 0.816664 16.474 1.07502ZM9.399 15.701L4.689 18.42L13.527 23.522V18.084L9.399 15.701ZM20.602 15.701L16.474 18.084V23.522L25.311 18.42L20.602 15.701ZM3.217 12.131V15.868L6.452 14L3.217 12.131ZM26.784 12.131L23.548 14L26.784 15.868V12.131ZM15 12.468L12.345 14L15 15.532L17.655 14L15 12.468ZM13.527 4.47802L4.69 9.58002L9.399 12.299L13.527 9.91502V4.47802ZM16.474 4.47802V9.91602L20.602 12.3L25.311 9.58002L16.474 4.47802Z" fill="#FB9014"/>
</svg>
