<svg width="30" height="17" viewBox="0 0 30 17" fill="none" xmlns="http://www.w3.org/2000/svg">
<path d="M22.367 0.160156C21.9762 0.160156 21.6014 0.3154 21.3251 0.591735C21.0487 0.86807 20.8935 1.24286 20.8935 1.63366C20.8935 2.02445 21.0487 2.39924 21.3251 2.67558C21.6014 2.95191 21.9762 3.10716 22.367 3.10716H24.703L17.947 9.86316L12.359 4.27516C12.2222 4.13825 12.0597 4.02964 11.881 3.95553C11.7022 3.88143 11.5105 3.84329 11.317 3.84329C11.1234 3.84329 10.9318 3.88143 10.753 3.95553C10.5742 4.02964 10.4118 4.13825 10.275 4.27516L0.697981 13.8522C0.561209 13.989 0.452729 14.1514 0.378733 14.3302C0.304738 14.509 0.266677 14.7005 0.266724 14.894C0.26677 15.0875 0.304923 15.279 0.379004 15.4578C0.453085 15.6365 0.561643 15.7989 0.698481 15.9357C0.835318 16.0724 0.997755 16.1809 1.17652 16.2549C1.35528 16.3289 1.54686 16.367 1.74033 16.3669C1.93381 16.3669 2.12537 16.3287 2.3041 16.2546C2.48282 16.1806 2.64521 16.072 2.78198 15.9352L11.317 7.40016L16.905 12.9882C17.0418 13.1251 17.2042 13.2337 17.383 13.3078C17.5618 13.3819 17.7534 13.42 17.947 13.42C18.1405 13.42 18.3322 13.3819 18.511 13.3078C18.6897 13.2337 18.8522 13.1251 18.989 12.9882L26.787 5.19016V7.52716C26.787 7.91795 26.9422 8.29274 27.2186 8.56908C27.4949 8.84541 27.8697 9.00066 28.2605 9.00066C28.6513 9.00066 29.0261 8.84541 29.3024 8.56908C29.5787 8.29274 29.734 7.91795 29.734 7.52716V1.63316C29.734 0.820157 29.074 0.160156 28.26 0.160156H22.367Z" fill="#277543"/>
</svg>
