<svg width="29" height="29" viewBox="0 0 29 29" fill="none" xmlns="http://www.w3.org/2000/svg">
<path d="M24.63 0.196079L25.2093 0.279533C26.1093 0.421897 27.1173 0.660806 27.7358 1.28099C28.3576 1.90281 28.5965 2.90917 28.7389 3.80917L28.8224 4.38681C29.0122 5.75153 29.0613 7.54172 28.7389 9.52826C28.1024 13.4474 26.016 18.1224 20.7764 21.7453C20.7524 22.0137 20.7442 22.2821 20.7518 22.5504L20.7764 23.3654C20.7927 23.9086 20.7829 24.4503 20.6324 24.969C20.3476 25.9606 19.3315 26.6135 18.3824 27.0799L17.9176 27.3008L17.3171 27.5659L16.908 27.7295C15.8476 28.1353 14.568 28.4184 13.7318 27.5806C13.3522 27.201 13.1755 26.6855 13.0347 26.1684L12.966 25.9115C12.731 24.9996 12.4469 24.101 12.1151 23.2197C12.0213 23.3332 11.9225 23.4424 11.8189 23.547C11.0007 24.3619 9.89291 24.7743 8.78346 25.0917L8.04709 25.2946L7.31237 25.4894L6.59564 25.6694L5.94764 25.8199L5.172 25.9835L4.68764 26.0784C4.44593 26.1236 4.19686 26.1091 3.96199 26.0363C3.72712 25.9636 3.51351 25.8347 3.33965 25.6608C3.16578 25.4869 3.03688 25.2733 2.96412 25.0385C2.89135 24.8036 2.87689 24.5545 2.922 24.3128L3.08891 23.4864L3.282 22.6192L3.46855 21.855L3.80564 20.5868C4.13946 19.3579 4.54691 18.0897 5.45509 17.1832L5.604 17.0392L4.45855 16.6301L3.30982 16.2324C2.63564 16.0099 1.92709 15.7759 1.43782 15.2883C0.544365 14.3932 0.924002 12.9974 1.36909 11.901L1.61782 11.3217L1.824 10.8701C2.29855 9.85881 2.97437 8.69372 4.04946 8.38608C4.56818 8.23553 5.10982 8.22735 5.65309 8.24044L6.468 8.26826C6.738 8.27153 7.008 8.26826 7.27309 8.24208C10.8944 3.00244 15.5711 0.916079 19.4918 0.279533C21.1912 -0.000297472 22.9226 -0.027867 24.63 0.197715M19.9713 3.24135C16.674 3.77808 12.6682 5.54372 9.54109 10.245C9.16146 10.8177 8.52164 11.0877 7.86873 11.1908C7.50064 11.2475 7.12838 11.2727 6.756 11.2661L5.63346 11.2497C5.448 11.2475 5.26146 11.2508 5.07382 11.2595C4.61891 11.865 4.29982 12.585 4.06255 13.3001L6.31255 14.1183L7.23709 14.4668C8.92909 15.1312 10.5671 15.933 11.8271 17.193C13.9495 19.3154 15.0278 22.0923 15.8084 24.9281C16.4924 24.6892 17.1796 24.3815 17.7622 23.9463L17.7704 23.3866L17.754 22.2674C17.754 21.8959 17.7704 21.5228 17.8293 21.1514C17.9307 20.4984 18.204 19.8586 18.7735 19.479C23.4764 16.3535 25.242 12.3461 25.7771 9.04881C26.0093 7.64348 26.0341 6.21169 25.8507 4.79917C25.7919 4.34457 25.6951 3.89572 25.5611 3.45735C25.1227 3.32394 24.6738 3.2276 24.2193 3.16935C22.8073 2.98611 21.3761 3.00928 19.9713 3.24135ZM7.57582 19.3072C7.05055 19.9404 6.80673 20.7733 6.61037 21.5981L6.44673 22.3017L6.36491 22.6388L7.40564 22.395C8.23037 22.1986 9.06491 21.9532 9.69655 21.4279C9.84411 21.2906 9.96248 21.1249 10.0446 20.9408C10.1267 20.7567 10.1709 20.5579 10.1745 20.3564C10.1781 20.1548 10.1411 19.9546 10.0656 19.7677C9.99017 19.5808 9.87781 19.411 9.73527 19.2684C9.59273 19.1259 9.42293 19.0135 9.23601 18.9381C9.04909 18.8626 8.84887 18.8256 8.64732 18.8292C8.44577 18.8328 8.24701 18.877 8.06292 18.9591C7.87882 19.0412 7.71316 19.1596 7.57582 19.3072ZM16.0604 8.7019C16.3391 8.42329 16.6699 8.20231 17.034 8.05157C17.3982 7.90083 17.7884 7.82329 18.1825 7.82336C18.5766 7.82344 18.9668 7.90113 19.3308 8.05201C19.6949 8.20289 20.0257 8.424 20.3043 8.70271C20.5829 8.98143 20.8039 9.31229 20.9546 9.6764C21.1053 10.0405 21.1829 10.4308 21.1828 10.8248C21.1827 11.2189 21.105 11.6091 20.9542 11.9732C20.8033 12.3372 20.5822 12.668 20.3035 12.9466C19.7404 13.5093 18.9768 13.8252 18.1808 13.8249C17.3847 13.8246 16.6214 13.5081 16.0587 12.945C15.4961 12.3819 15.1801 11.6183 15.1804 10.8223C15.1807 10.0262 15.4973 9.26457 16.0604 8.7019Z" fill="#103FE7"/>
</svg>
