<svg width="18" height="18" viewBox="0 0 18 18" fill="none" xmlns="http://www.w3.org/2000/svg">
<path d="M13.0004 0C13.5131 0 13.9353 0.386182 13.9931 0.883636L13.9996 1.00036V1.99964H16.0004C17.0542 1.99964 17.9182 2.81564 17.9945 3.85091L18 4.00036V16.0004C18 17.0542 17.184 17.9182 16.1487 17.9945L16.0004 18H1.99964C1.49497 18 1.00897 17.8092 0.639109 17.4659C0.269252 17.1225 0.0428984 16.652 0.00545467 16.1487L0 16.0004V4.00036C0 2.94545 0.816 2.08145 1.85127 2.00509L1.99964 1.99964H4.00036V1.00036C4.00201 0.746299 4.10026 0.502379 4.27518 0.318112C4.4501 0.133845 4.68858 0.023039 4.94222 0.00818461C5.19586 -0.00666979 5.44564 0.0755403 5.64087 0.238129C5.83611 0.400717 5.96216 0.6315 5.99346 0.883636L6 1.00036V1.99964H12V1.00036C12 0.447273 12.4473 0 13.0004 0ZM16.0004 9H1.99964V16.0004H16.0004V9ZM16.0004 4.00036H1.99964V7.00036H16.0004V4.00036Z" fill="#EF476F"/>
</svg>
