<svg width="20" height="20" viewBox="0 0 20 20" fill="none" xmlns="http://www.w3.org/2000/svg">
<path d="M10 0.582031C15.523 0.582031 20 4.87995 20 10.182C20 15.4841 15.523 19.782 10 19.782C4.477 19.782 0 15.4841 0 10.182C0 4.87995 4.477 0.582031 10 0.582031ZM13.535 6.70779L8.585 11.4598L6.465 9.42363C6.37216 9.33444 6.26192 9.26367 6.14059 9.21538C6.01926 9.16708 5.8892 9.1422 5.75785 9.14216C5.49258 9.14207 5.23814 9.24314 5.0505 9.42315C4.86286 9.60316 4.75739 9.84735 4.7573 10.102C4.7572 10.3567 4.86249 10.6009 5.05 10.7811L7.808 13.4288C7.91015 13.5269 8.03144 13.6047 8.16493 13.6578C8.29842 13.7109 8.4415 13.7382 8.586 13.7382C8.7305 13.7382 8.87358 13.7109 9.00707 13.6578C9.14056 13.6047 9.26185 13.5269 9.364 13.4288L14.95 8.06619C15.1376 7.88606 15.2431 7.64174 15.2431 7.38699C15.2431 7.13224 15.1376 6.88793 14.95 6.70779C14.7624 6.52766 14.5079 6.42646 14.2425 6.42646C13.9771 6.42646 13.7226 6.52766 13.535 6.70779Z" fill="#23C45C"/>
</svg>
