<svg width="15" height="14" viewBox="0 0 15 14" fill="none" xmlns="http://www.w3.org/2000/svg">
<path d="M10.1368 0.636281L14.6031 6.29361C14.751 6.48111 14.834 6.73528 14.834 7.00028C14.834 7.26528 14.751 7.51945 14.6031 7.70695L10.1368 13.3643C9.98716 13.5409 9.78922 13.6371 9.58469 13.6325C9.38016 13.6279 9.18502 13.523 9.04038 13.3398C8.89573 13.1566 8.81288 12.9094 8.80927 12.6503C8.80566 12.3912 8.88158 12.1405 9.02103 11.9509L12.1389 8.00028H1.68419C1.47481 8.00028 1.274 7.89492 1.12595 7.70739C0.977891 7.51985 0.894714 7.2655 0.894714 7.00028C0.894714 6.73506 0.977891 6.48071 1.12595 6.29317C1.274 6.10564 1.47481 6.00028 1.68419 6.00028H12.1389L9.02103 2.05095C8.94347 1.9594 8.88125 1.849 8.8381 1.72633C8.79495 1.60367 8.77175 1.47125 8.76988 1.33698C8.76801 1.20271 8.78751 1.06933 8.82722 0.944816C8.86692 0.820299 8.92602 0.707187 9.00099 0.612229C9.07596 0.517271 9.16526 0.442411 9.26356 0.392116C9.36186 0.341822 9.46716 0.317123 9.57316 0.319492C9.67916 0.321861 9.7837 0.351249 9.88054 0.405905C9.97739 0.460561 10.0645 0.538032 10.1368 0.636281Z" fill="#EF476F"/>
</svg>
